<?xml version="1.0" encoding="UTF-8"?>
<svg width="299px" height="48px" viewBox="0 0 299 48" version="1.1" xmlns="http://www.w3.org/2000/svg" xmlns:xlink="http://www.w3.org/1999/xlink">
    <title>logo_2021-updated</title>
    <g id="Page-1" stroke="none" stroke-width="1" fill="none" fill-rule="evenodd">
        <g id="logo_2021-updated" transform="translate(0.031141, 0.088400)" fill-rule="nonzero">
            <g id="Group" transform="translate(0.000000, -0.000000)" fill="#05C3DD">
                <path d="M30.0988593,19.6816 C41.3088593,19.6816 45.0788593,19.9216 48.1488593,9.7716 C50.4988593,2.0116 46.4188593,0.0016 37.4388593,0.0016 C32.8588593,0.0016 26.6388593,-0.0084 22.4388593,0.0216 C18.4388593,0.0516 11.9388593,-0.1184 8.21885932,3.0916 C4.76885932,6.0616 2.77885932,10.8916 1.74885932,15.7716 C0.718859317,20.6516 0.00885931744,28.1816 0.00885931744,28.1816 C-0.0811406826,28.6316 0.538859317,28.9216 0.768859317,28.5316 C6.32885932,19.2816 8.53885932,19.6816 30.0988593,19.6816" id="Path"></path>
                <path d="M24.3388593,28.1416 C13.1288593,28.1416 9.35885932,27.9016 6.28885932,38.0516 C3.93885932,45.8016 8.01885932,47.8216 16.9988593,47.8216 C21.5788593,47.8216 27.7988593,47.8316 31.9988593,47.8016 C35.9988593,47.7716 42.4988593,47.9416 46.2188593,44.7316 C49.6688593,41.7616 51.6588593,36.9316 52.6888593,32.0516 C53.7188593,27.1716 54.4288593,19.6416 54.4288593,19.6416 C54.5188593,19.1916 53.9088593,18.9016 53.6688593,19.2916 C48.1088593,28.5416 45.8988593,28.1416 24.3388593,28.1416" id="Path"></path>
            </g>
            <g id="Group" transform="translate(67.687415, 8.003497)" fill="#0069B1">
                <path d="M22.6914445,26.2281028 L6.08144454,26.3381028 C5.85144454,26.3081028 5.70144454,26.2781028 5.60144454,26.1681028 C5.50144454,26.0481028 5.46144454,25.8581028 5.49144454,25.6181028 L8.52144454,3.12810282 C8.63144454,2.33810282 8.38144454,1.53810282 7.85144454,0.928102815 C7.32144454,0.328102815 6.53144454,-0.0618971848 5.75144454,0.00810281525 L3.38144454,0.0381028152 L0.0614445413,24.8881028 C-0.188555459,26.6881028 0.331444541,28.4781028 1.49144454,29.7881028 C2.64144454,31.0981028 4.27144454,31.8181028 6.08144454,31.8181028 C6.09144454,31.8181028 6.10144454,31.8181028 6.12144454,31.8181028 L25.0614445,31.6981028 L25.4214445,29.3981028 C25.5414445,28.5981028 25.3114445,27.7981028 24.7914445,27.1881028 C24.2614445,26.5681028 23.5014445,26.1681028 22.6914445,26.2281028" id="Path"></path>
                <path d="M36.6714445,16.5181028 L36.9014445,14.8181028 C37.0714445,13.5081028 38.3614445,12.3581028 39.6614445,12.3481028 L49.3014445,12.2881028 L49.3114445,12.2881028 C49.7814445,12.2881028 50.1714445,12.4481028 50.4314445,12.7381028 C50.7014445,13.0381028 50.8114445,13.4881028 50.7414445,13.9881028 C50.5714445,15.2981028 49.2814445,16.4481028 47.9814445,16.4581028 L36.6714445,16.5181028 Z M49.2614445,6.80810282 L39.6214445,6.86810282 C35.5814445,6.88810282 32.0014445,10.0681028 31.4614445,14.0981028 L30.2314445,23.3781028 C29.9414445,25.5681028 30.5514445,27.6481028 31.9414445,29.2281028 C33.3114445,30.7781028 35.2514445,31.6381028 37.4114445,31.6381028 C37.4214445,31.6381028 37.4414445,31.6381028 37.4614445,31.6381028 L53.6614445,31.5381028 L53.9214445,29.1081028 C54.0014445,28.3281028 53.7514445,27.5581028 53.2314445,26.9781028 C52.7114445,26.3981028 51.9714445,26.0781028 51.2014445,26.0781028 L51.1814445,26.0781028 L37.4314445,26.1581028 C36.8514445,26.1581028 36.3714445,25.9681028 36.0614445,25.6081028 C35.7314445,25.2381028 35.6014445,24.7081028 35.6714445,24.1081028 L35.9514445,22.0081028 L48.0214445,21.9381028 C52.0614445,21.9181028 55.6414445,18.7381028 56.1814445,14.7081028 C56.4614445,12.6081028 55.8814445,10.6281028 54.5414445,9.11810282 C53.2114445,7.60810282 51.3214445,6.76810282 49.2614445,6.80810282" id="Shape"></path>
                <path d="M96.9114445,0.658102815 C95.1814445,0.0281028152 93.2614445,0.718102815 92.2414445,2.31810282 L79.5414445,22.4781028 L72.3614445,2.97810282 C71.7814445,1.39810282 70.1814445,0.418102815 68.4814445,0.608102815 C66.6414445,0.808102815 65.1814445,2.23810282 64.9414445,4.06810282 L61.7314445,28.3281028 C61.6314445,29.1081028 61.8714445,29.8981028 62.3914445,30.4981028 C62.9114445,31.0881028 63.6614445,31.4281028 64.4414445,31.4281028 L64.4614445,31.4281028 L66.8514445,31.4181028 L69.5314445,11.1781028 L74.7114445,25.2481028 C75.3514445,26.9981028 76.8614445,28.1581028 78.7314445,28.3481028 C80.7814445,28.5681028 82.8314445,27.5381028 83.9714445,25.7281028 L92.8114445,11.6981028 L90.2314445,31.2481028 L93.3514445,31.2481028 L93.3514445,31.2481028 C94.7214445,31.2481028 95.8814445,30.2281028 96.0614445,28.8781028 L99.2814445,4.61810282 C99.5214445,2.84810282 98.5714445,1.25810282 96.9114445,0.658102815" id="Path"></path>
                <path d="M189.811445,6.27810282 L180.961445,6.32810282 C176.601445,6.35810282 172.731445,9.78810282 172.161445,14.1381028 L170.361445,27.7081028 C170.261445,28.4981028 170.501445,29.2881028 171.021445,29.8781028 C171.541445,30.4681028 172.291445,30.8081028 173.081445,30.8081028 L173.101445,30.8081028 L175.491445,30.7981028 L177.601445,14.8581028 C177.811445,13.2481028 179.401445,11.8181028 181.001445,11.8081028 L189.851445,11.7581028 C191.241445,11.7481028 192.411445,10.6981028 192.561445,9.30810282 C192.641445,8.52810282 192.391445,7.75810282 191.871445,7.17810282 C191.341445,6.59810282 190.621445,6.29810282 189.811445,6.27810282" id="Path"></path>
                <path d="M109.101445,25.6281028 C109.041445,25.5581028 109.011445,25.4181028 109.041445,25.2581028 L109.361445,22.8081028 C109.441445,22.1881028 110.121445,21.5781028 110.731445,21.5681028 L123.261445,21.4981028 L122.871445,24.4281028 C122.791445,25.0481028 122.111445,25.6581028 121.501445,25.6581028 L109.411445,25.7281028 C109.301445,25.7381028 109.171445,25.7081028 109.101445,25.6281028 M124.101445,6.36810282 C124.091445,6.36810282 124.071445,6.36810282 124.061445,6.36810282 L106.951445,6.46810282 L106.651445,8.85810282 C106.551445,9.63810282 106.801445,10.4281028 107.321445,11.0181028 C107.841445,11.6081028 108.621445,11.9781028 109.391445,11.9381028 L124.091445,11.8481028 C124.261445,11.8281028 124.351445,11.8781028 124.411445,11.9481028 C124.471445,12.0181028 124.501445,12.1581028 124.481445,12.3281028 L123.991445,16.0081028 L110.701445,16.0881028 C107.351445,16.1081028 104.371445,18.7381028 103.931445,22.0881028 L103.611445,24.5381028 C103.381445,26.2781028 103.881445,27.9981028 105.001445,29.2581028 C106.111445,30.5181028 107.681445,31.2181028 109.421445,31.2181028 C109.431445,31.2181028 109.451445,31.2181028 109.461445,31.2181028 L121.551445,31.1481028 C124.901445,31.1281028 127.881445,28.4981028 128.321445,25.1481028 L129.921445,13.0481028 C130.151445,11.3081028 129.641445,9.58810282 128.531445,8.32810282 C127.411445,7.05810282 125.841445,6.36810282 124.101445,6.36810282" id="Shape"></path>
                <path d="M202.341445,15.5681028 L202.571445,13.8481028 C202.741445,12.5481028 204.021445,11.4081028 205.301445,11.3981028 L214.971445,11.3381028 L214.981445,11.3381028 C215.441445,11.3381028 215.841445,11.4981028 216.091445,11.7781028 C216.431445,12.1681028 216.441445,12.6781028 216.391445,13.0481028 C216.221445,14.3481028 214.941445,15.4881028 213.661445,15.4981028 L202.341445,15.5681028 Z M220.211445,8.15810282 C218.901445,6.67810282 217.051445,5.85810282 214.991445,5.85810282 C214.971445,5.85810282 214.961445,5.85810282 214.941445,5.85810282 L205.261445,5.91810282 C201.231445,5.93810282 197.661445,9.10810282 197.131445,13.1281028 L195.851445,22.8081028 C195.571445,24.8981028 196.151445,26.8781028 197.481445,28.3881028 C198.791445,29.8681028 200.641445,30.6881028 202.701445,30.6881028 C202.721445,30.6881028 202.731445,30.6881028 202.751445,30.6881028 L218.851445,30.5881028 L219.141445,28.1981028 C219.241445,27.4181028 218.991445,26.6281028 218.471445,26.0381028 C217.951445,25.4481028 217.181445,25.1081028 216.411445,25.1181028 L202.721445,25.1981028 L202.711445,25.1981028 C202.251445,25.1981028 201.861445,25.0381028 201.601445,24.7581028 C201.341445,24.4581028 201.231445,24.0181028 201.291445,23.5281028 L201.621445,21.0581028 L213.711445,20.9881028 C217.741445,20.9681028 221.311445,17.7781028 221.851445,13.7381028 C222.121445,11.6481028 221.541445,9.66810282 220.211445,8.15810282" id="Shape"></path>
                <path d="M163.641445,6.14810282 L163.621445,6.14810282 L157.381445,6.18810282 L157.571445,4.72810282 C157.671445,3.94810282 157.441445,3.15810282 156.921445,2.56810282 C156.401445,1.97810282 155.651445,1.63810282 154.871445,1.63810282 L152.471445,1.62810282 L149.651445,22.7881028 C149.361445,24.9581028 149.961445,27.0081028 151.341445,28.5681028 C152.691445,30.1081028 154.611445,30.9481028 156.751445,30.9481028 C156.771445,30.9481028 156.781445,30.9481028 156.801445,30.9481028 L161.501445,30.9181028 L161.801445,28.5281028 C161.901445,27.7481028 161.661445,26.9581028 161.131445,26.3681028 C160.611445,25.7781028 159.871445,25.4481028 159.081445,25.4481028 L159.061445,25.4481028 L156.761445,25.4581028 C156.211445,25.4781028 155.751445,25.2781028 155.451445,24.9381028 C155.141445,24.5881028 155.011445,24.0781028 155.091445,23.5081028 L156.661445,11.6781028 L163.661445,11.6381028 C165.051445,11.6281028 166.211445,10.5781028 166.361445,9.17810282 C166.441445,8.40810282 166.191445,7.62810282 165.671445,7.05810282 C165.151445,6.47810282 164.411445,6.14810282 163.641445,6.14810282" id="Path"></path>
                <path d="M141.021445,6.35810282 L138.631445,6.37810282 L135.771445,27.8881028 C135.671445,28.6781028 135.911445,29.4681028 136.431445,30.0681028 C136.951445,30.6581028 137.701445,30.9981028 138.491445,30.9981028 L138.511445,30.9981028 L140.901445,30.9881028 L143.761445,9.47810282 C143.861445,8.68810282 143.621445,7.89810282 143.101445,7.29810282 C142.571445,6.69810282 141.811445,6.39810282 141.021445,6.35810282" id="Path"></path>
                <path d="M231.251445,4.43810282 C231.251445,6.64810282 229.701445,8.21810282 227.471445,8.21810282 C225.241445,8.21810282 223.691445,6.64810282 223.691445,4.43810282 C223.691445,2.20810282 225.241445,0.658102815 227.471445,0.658102815 C229.701445,0.658102815 231.251445,2.20810282 231.251445,4.43810282 Z M230.221445,4.43810282 C230.221445,2.78810282 229.071445,1.62810282 227.461445,1.62810282 C225.831445,1.62810282 224.701445,2.78810282 224.701445,4.43810282 C224.701445,6.08810282 225.831445,7.24810282 227.461445,7.24810282 C229.081445,7.25810282 230.221445,6.08810282 230.221445,4.43810282 Z M229.001445,5.81810282 C229.191445,6.06810282 229.121445,6.31810282 228.631445,6.31810282 C228.341445,6.31810282 228.141445,6.21810282 227.991445,6.00810282 L227.431445,5.17810282 L227.041445,5.17810282 L227.041445,5.93810282 C227.041445,6.20810282 226.901445,6.32810282 226.551445,6.32810282 C226.201445,6.32810282 226.071445,6.20810282 226.071445,5.93810282 L226.071445,3.21810282 C226.071445,2.82810282 226.301445,2.45810282 227.271445,2.45810282 C228.421445,2.45810282 229.001445,2.99810282 229.001445,3.79810282 C229.001445,4.33810282 228.711445,4.70810282 228.321445,4.92810282 L229.001445,5.81810282 Z M227.311445,4.37810282 C227.661445,4.37810282 227.991445,4.25810282 227.991445,3.83810282 C227.991445,3.48810282 227.741445,3.29810282 227.291445,3.29810282 C227.101445,3.29810282 227.081445,3.31810282 227.041445,3.31810282 L227.041445,4.38810282 L227.311445,4.38810282 L227.311445,4.37810282 Z" id="Shape"></path>
            </g>
        </g>
    </g>
</svg>